<?xml version="1.0" encoding="utf-8"?>
<!-- Generator: Adobe Illustrator 19.0.0, SVG Export Plug-In . SVG Version: 6.00 Build 0)  -->
<svg version="1.1" id="Layer_1" xmlns="http://www.w3.org/2000/svg" xmlns:xlink="http://www.w3.org/1999/xlink" x="0px" y="0px"
	 viewBox="-114 -8.7 612 560.3" style="enable-background:new -114 -8.7 612 560.3;" xml:space="preserve">
<style type="text/css">
	.st0{fill:#C2481F;}
</style>
<g id="XMLID_417_">
	<g id="XMLID_392_">
		<g id="XMLID_82_">
			<g id="XMLID_122_">
				<path id="XMLID_123_" class="st0" d="M29.7,169.4c2-1.1,6-0.4,12.6,2.1c7.6,3.2,11.7,9.6,12.2,19.2l0.4,7.6
					c0.2,5.3-0.7,12.2-2.8,20.9c-3.5,14-8.5,28-14.9,41.9l-4.4,9.2c-0.4,0.9-1.1,2.5-2.1,4.6c-1.1,2.1-2.3,4.8-3.7,8l-5.5,12.4
					C16,307.5,11.6,316.4,8,322.2l-3.9,6.6c-1.8,0.7-5.5,1.1-11.2,1.1c-21.7-0.2-32.8-6.2-33.4-18.1l-2.7-54.3
					c-0.5-10.8-3.9-14.4-10.1-10.8c-0.2,0.2-0.4,0.2-0.7,0.4l-3,2c-0.2,0.2-0.4,0.2-0.5,0.4c-2.5,1.4-3.7,1.1-3.9-1.2
					c0-1.2,4.6-8.3,14.2-21.3l14-18.8c1.4-0.9,3.9-0.2,7.5,2.1c4.3,3.2,6.6,8.2,6.7,14.7l2.7,53.8c0.5,10.5,5.5,16,14.7,16.3
					c2.5,0,7.1-0.5,13.8-1.8l10.6-22.5c6.7-17.7,9.9-31.8,9.4-42.1c-0.4-5.5-2.3-10.6-6-15.6c-4.1-5-8.3-6.2-12.8-3.7
					c-0.2,0.2-0.4,0.2-0.5,0.4l-9.8,6.2c-0.4-0.4-0.7-0.7-0.9-0.9s-0.4-0.4-0.7-0.5l-1.2-2.1c0-1.2,5.5-10.3,16.9-27.2
					C23.3,176.5,27.2,171.6,29.7,169.4z"/>
			</g>
			<g id="XMLID_94_">
				<path id="XMLID_112_" class="st0" d="M128.3,245.9l0.2,3.4l-46,29.3l-0.2-4.3l4.3-13.5c1.6-5.1,2.3-9.8,2-14.2l-3.7-75.1
					c-0.4-6.7-4.1-8.2-11.2-4.1c-0.5,0.4-0.9,0.5-1.4,0.9c-2,1.1-4.1,0.7-6.7-1.1c2.8-5.1,8.3-13,16.5-23.4l15.1-19.2
					c0.2,0,0.2-0.2,0.4-0.2c4.1-2.3,7.8-0.2,11.2,6.4l5.7,9.6l4.6,91.2c0.2,4.4,1.4,7.8,3.5,9.9L128.3,245.9z"/>
			</g>
			<g id="XMLID_92_">
				<path id="XMLID_93_" class="st0" d="M90,103.2C88,96,87,90.8,86.8,88c-0.2-5.3,0.9-10.5,3.4-15.6c2.5-5.1,5.9-8.9,9.9-11.5
					c0.4-0.2,0.7-0.4,0.9-0.5c3.7-2.1,7.1-2.8,10.1-1.8c3.4,1.1,5,3.9,5.3,8.5c0.2,3.9-2.3,12.1-7.3,24.3
					c-4.8,11.9-9.1,19-12.6,21.3C94.2,113.9,92.1,110.7,90,103.2z"/>
			</g>
			<g id="XMLID_90_">
				<path id="XMLID_91_" class="st0" d="M181.4,70.8c3.9-2.3,9.1-4.1,15.8-5.3l10.3-1.8l7.3-4.6c1.4-1.1,2.3-2.1,2.8-3.2
					c2-2.8,3.7-5,5.5-6.6c0.2-0.2,0.4-0.2,0.5-0.4c2.8-1.6,4.3-1.1,4.4,1.6c0.2,2.7-2.5,9.4-8.2,20.4c-5.5,11-11.4,18.5-17.4,22.4
					c-0.4,0.2-0.9,0.5-1.2,0.7c-5.9,3.4-13.8,5.9-24.1,7.3c-5.5,0.7-9.8,2-12.8,3.7c-0.2,0.2-0.5,0.4-0.7,0.4
					c-5.7,3.5-10.6,10.1-14.9,19.3c-2.8,6.4-4.4,11.4-4.4,14.7l0.5,10.8c0.5,9.4,6.2,16.9,17.2,22.4c10.8,4.6,20.4,4.4,28.6-0.4
					c0.4-0.2,0.7-0.5,1.1-0.7l11.5-7.3c4.4-2.8,8.5-7.1,11.9-12.6l11.2-18.5l5.7-3.5l0.7,12.8c0.5,9.4-4.8,22.2-15.8,38
					c-10.3,14.7-19.7,24.8-28.6,30.5c-1.1,0.7-2,1.2-3,1.8c-15.3,8.7-28.2,9.1-38.9,1.1c-9.4-6.4-14.4-15.1-14.9-25.9l-1.2-23.4
					c-0.7-13,4.6-30,16-51.1c10.6-20.6,22-34.8,34.1-42.4C180.8,71.1,181,71,181.4,70.8z"/>
			</g>
			<g id="XMLID_85_">
				<path id="XMLID_87_" class="st0" d="M342,61.4c0.5,9.9-4.1,24.1-14,42.6c-9.6,18.1-19,30.2-28,35.8l-12.6,8.2
					c-0.4,0.2-0.7,0.5-1.2,0.7c-9.1,5.3-18.6,4.4-28.4-2.7c-10.5-7.3-16-16.3-16.5-26.8l-1.4-27.3c-0.5-11.7,4.1-27.3,14-47
					c10.1-20.1,20.4-33.4,30.9-40.1l9.4-6c3.7-2.1,12.2-3,25.7-2.8c14.2-0.2,21.5,0.7,21.7,2.7c0.2,2.5-4.4,9.9-13.8,22.7l-27,36.9
					l-17.7,23.4c-11,14.7-16.5,22.4-16.5,23.1c2.1,1.6,3.9,2.7,5.7,3.5c1.6,0.7,3,1.2,4.1,1.4c7.6,2.3,16,0.7,25-4.6
					c0.7-0.5,1.6-0.9,2.3-1.4c7.5-4.8,14.2-11.7,20.2-20.8l13.8-25.9c1.4-0.9,2.5-0.9,3-0.2L342,61.4z M263.4,94.6
					c0.4-0.9,5.3-8,15.1-21.1L307.7,34c-5.9,0.5-13.1-2.3-22-8.3c-2.5-1.8-5.7-1.6-9.2,0.5c-0.2,0.2-0.5,0.4-0.7,0.5
					c-5,3.2-9.1,8.3-12.6,15.6l-8,23.8l1.1,19.7c0.4,0,1.1,1.2,2.1,3.7C259.5,91.7,261.1,93.5,263.4,94.6"/>
			</g>
		</g>
	</g>
	<g id="XMLID_403_">
		<g id="XMLID_107_">
			<g id="XMLID_143_">
				<path id="XMLID_144_" class="st0" d="M454.8,96.3l14.6,1.4c9.9,1.1,14.7,2.3,14.7,3.7c0,2.5-1.4,4.6-4.1,6l-3,1.8
					c-6.7,3.9-9.9,11.5-9.9,23.1l0.2,55.9c0,12.2-10.5,31.4-31.4,57.5c-5.5,6.7-9.1,11-10.8,12.4l-4.1-1.8
					c-3.7-1.4-8.5-4.8-14.2-10.1l-5.9-5.3c-1.6-1.4-2.8-2.5-4.1-3.4c-1.1-0.9-1.8-1.4-2.3-2l-4.8-3.7c-6.9-5.7-12.4-13.3-16.7-22.7
					c-2.7-5.7-3.9-11.4-3.9-16.7v-7.8c0-9.8,3.5-20.8,10.8-33c6.2-10.5,10.3-16.1,12.1-17.2c2.5-1.1,6.7-0.9,12.4,0.4
					c11.9,2.7,17.7,4.6,17.7,6l-1.2,3.7c-0.2,0.4-0.4,0.7-0.5,1.2c-0.2,0.5-0.5,1.1-0.9,2l-9.8,5.7c-4.4,2.7-8.7,9.1-12.6,19.2
					c-3.4,9.2-5,16.5-5,22.2c0,10.6,3.7,20.4,11.4,29.5l11.5,8.9c6.7-7.1,11.2-12.1,13.5-14.9c9.1-11.5,13.5-22.7,13.5-33.5
					l-0.2-55.2c0-6.7,2-14.2,5.9-22.4C451.1,100.6,453.4,97,454.8,96.3z"/>
			</g>
			<g id="XMLID_120_">
				<path id="XMLID_121_" class="st0" d="M341.3,182.2c10.6,7.3,16,16.9,16,28.7v28.2c0,10.8-4.8,26.1-14.7,45.8
					c-9.6,19.3-19.2,31.8-28.6,37.3l-12.8,7.3c-9.1,5.1-18.6,4.8-28.9-1.2c-10.5-6.2-15.6-14.4-15.8-24.5l0.9-5.9
					c0.5-1.4,1.6-2.7,3-3.4l14.7,8.5c6.4,1.6,13.1,0.2,20.6-4.1c10.1-5.9,19-14.7,26.8-27c1.1-1.4,2.3-3.5,3.9-6.2
					c1.6-2.7,3.4-6,5.3-10.1c0-0.7-5.7-1.6-17.2-2.7l-18.3-1.6l-28-3.4c-9.6-1.2-14.6-3-14.6-5.5c0.2-2.3,7.1-11.9,20.9-28.6
					c13.3-16.7,21.7-26.1,25-28l9.4-5.5C319.8,174.2,330.4,174.9,341.3,182.2z M341.1,224.5V204l-8.9-13.5c-3.7-2.8-8.2-2.8-13,0
					c-3.9,2.3-7.1,6-9.8,11c-8.2,16.5-15.3,28-20.9,34.4l30.5,3.2c10.1,1.2,15.3,2,15.6,2.5c2.1-3.7,3.7-7.5,4.6-11.2
					C340.2,226.9,340.7,224.8,341.1,224.5"/>
			</g>
			<g id="XMLID_118_">
				<path id="XMLID_119_" class="st0" d="M217.9,233.3c1.8-0.4,6.6,0.9,14.6,3.5c7.6,2.8,11.5,5,11.5,6.2l-13.5,13.8
					c-4.1,5.1-6.2,10.8-6.2,17.2l0.2,77.9c0,2.7,1.4,5.7,4.4,9.1l4.4,3.5l-2.1,5.3l-2.3,1.4l-8.9,1.1c-3,0.4-6.6,1.8-11,4.3
					c-3.7,2.1-6.7,4.6-9.1,7.3l-7.1,8.2l-3.2,1.2c-1.1-0.5-1.4-1.4-1.4-2.5c0-1.4,1.4-4.8,4.1-10.1c2.7-5.5,4.1-9.2,4.1-11.2
					l-0.2-79.7c0-2.7-1.6-5-4.8-6.7c-3.2-2.3-5.9-2.8-8-1.4c-5.9,3.4-8.9,8.2-8.9,14.2v4.4l0.4,5l-0.4,5.3l-3,1.8l-25-28.7
					c1.8-3.4,5.7-7.5,11.7-12.2l12.4-9.9c6.2-3.5,12.2-3.2,17.7,1.2c5.5,4.1,8.9,6,9.8,5.9c3.4-10.5,8.5-20.8,15.6-30.7L217.9,233.3
					z"/>
			</g>
			<g id="XMLID_116_">
				<path id="XMLID_117_" class="st0" d="M94.1,304.7c5.3-3,10.3-4.8,14.9-5.3c4.6-0.5,8.7,0.2,12.1,2.1c3.4,2,6,5,7.8,9.2
					c2,4.3,2.8,9.4,2.8,15.4c1.1,0.5,1.6,1.6,1.8,3.4l-3.2,15.1c-7.6,27.5-23.1,47.9-46.5,61.6v-4.1l1.8-3l0.9-4.3
					c0-3.4-1.4-6-4.4-7.8c-3-1.8-5.9-1.8-8.9-0.2c-5.1,3-9.4,8-13.1,15.1c-3.5,7.1-5.5,13.8-5.3,20.1c0,10.8,3.5,17.9,10.5,21.5
					c6.9,3.5,15.1,2.5,24.5-3c8.3-4.8,15.1-10.6,20.4-17.6c5.3-6.9,8-13.7,8-20.2c0-6.4-1.6-9.8-4.8-10.1c-1.2-0.2-2-0.9-2.3-2
					c0-0.7,0.5-1.6,1.4-2.8c1.1-1.2,2.1-2.7,3.4-4.1c1.2-1.4,2.5-2.7,3.9-3.7c1.2-1.1,2.3-1.8,2.8-2.1c4.1-2.3,7.6-2.5,10.6-0.2
					c3,2.3,4.4,5.9,4.4,10.8c0,12.1-5.5,24.5-16.5,37.3c-9.1,10.6-19.3,19.3-30.7,25.9c-14,8-27.3,11-40.1,8.9
					c-14.2-2.1-21.3-11.2-21.3-26.8v-11.2c0-8,2.8-17.4,8.5-28.4c5.5-10.8,11.9-18.5,19.2-22.5l7.1-4.1c3.5-2.1,6.9-2.5,10.1-1.4
					c7.5,2.3,12.4,2.7,14.7,1.2c7.3-4.3,14.2-10.5,20.9-18.5c8-9.9,12.1-18.5,12.1-25.9c0-5.7-1.6-9.2-4.8-10.8
					c-1.4-0.4-2.8-0.4-4.4-0.2c-3.7,2.1-10.5,9.1-20.4,20.9c-9.6,11.7-15.4,18.1-17.7,19.3l-8.3,4.8c-6,3.5-10.8,2.8-14.2-2l-8-11.7
					v-3l4.4-2.5c2.1-1.1,3.7-0.9,4.8,0.4c1.8,1.1,3.2,1.2,4.1,0.7l18.8-19.3C81.8,313,88,308,94.1,304.7z"/>
			</g>
			<g id="XMLID_111_">
				<path id="XMLID_113_" class="st0" d="M-5,391.6c15.1,9.9,22.5,23.1,22.5,39.2c0,18.1-5.7,36.9-17,56.3c-9.6,16.1-19,27-28,32.1
					c-1.6,0.5-7.5-0.2-17.4-1.8l-16-2.7l-10.6,21.7c-3.2,6.6-6.6,11-10.3,13.1c-0.5-0.2-1.1-0.2-1.4-0.2s-0.7,0-0.9-0.2
					c-3.2-0.4-5.7-0.7-7.8-0.9c-2.1-0.2-3.5-0.4-4.6-0.7l-13-2.7c0.4-1.6,4.1-5.7,10.8-12.4c7.1-7.6,10.6-16.1,10.6-25.2l-0.2-46.5
					c0-8.9-1.8-15.1-5.3-19l-11.9-11.9v-4.1l3.5-2.1c7.1,2.7,12.8,2.8,17.2,0.4c3-2.1,8.2-8,15.6-17.6c7.6-9.9,12.6-15.4,15.1-16.9
					C-37.6,380.6-21.1,381.2-5,391.6z M-20.7,470.4c8.7-18.1,13-31.9,13-41.3l-0.9-4.3l-0.9-3.2c0-8.3-1.8-14.7-5.3-19.3
					c-3.7-5.5-9.2-6.2-16.3-2.1c-3,1.8-7.8,8-14.7,19c-7.3,11-13.1,17.7-17.7,20.4l-2.3,0.7c-1.2,0.2-2.3,0.7-3.2,1.2
					c-1.4,0.9-2.5,1.6-3.4,2.5l8.7,13.5l3.9,4.3l0.2,41.3l5.9-0.7c3-0.2,6.4-1.2,10.3-3.5C-35.3,493.7-27.5,484.3-20.7,470.4"/>
			</g>
		</g>
	</g>
</g>
</svg>
