<?xml version="1.0" encoding="utf-8"?>
<!-- Generator: Adobe Illustrator 19.0.0, SVG Export Plug-In . SVG Version: 6.00 Build 0)  -->
<svg version="1.1" id="Layer_1" xmlns="http://www.w3.org/2000/svg" xmlns:xlink="http://www.w3.org/1999/xlink" x="0px" y="0px"
	 viewBox="-114 -8.7 612 560.3" style="enable-background:new -114 -8.7 612 560.3;" xml:space="preserve">
<style type="text/css">
	.st0{fill:#F6F3EA;}
</style>
<g id="XMLID_417_">
	<g id="XMLID_403_">
		<g id="XMLID_107_">
			<g id="XMLID_143_">
				<path id="XMLID_144_" class="st0" d="M454.8,96.3l14.6,1.4c9.9,1.1,14.7,2.3,14.7,3.7c0,2.5-1.4,4.6-4.1,6l-3,1.8
					c-6.7,3.9-9.9,11.5-9.9,23.1l0.2,55.9c0,12.2-10.5,31.4-31.4,57.5c-5.5,6.7-9.1,11-10.8,12.4l-4.1-1.8
					c-3.7-1.4-8.5-4.8-14.2-10.1l-5.9-5.3c-1.6-1.4-2.8-2.5-4.1-3.4c-1.1-0.9-1.8-1.4-2.3-2l-4.8-3.7c-6.9-5.7-12.4-13.3-16.7-22.7
					c-2.7-5.7-3.9-11.4-3.9-16.7v-7.8c0-9.8,3.5-20.8,10.8-33c6.2-10.5,10.3-16.1,12.1-17.2c2.5-1.1,6.7-0.9,12.4,0.4
					c11.9,2.7,17.7,4.6,17.7,6l-1.2,3.7c-0.2,0.4-0.4,0.7-0.5,1.2c-0.2,0.5-0.5,1.1-0.9,2l-9.8,5.7c-4.4,2.7-8.7,9.1-12.6,19.2
					c-3.4,9.2-5,16.5-5,22.2c0,10.6,3.7,20.4,11.4,29.5l11.5,8.9c6.7-7.1,11.2-12.1,13.5-14.9c9.1-11.5,13.5-22.7,13.5-33.5
					l-0.2-55.2c0-6.7,2-14.2,5.9-22.4C451.1,100.6,453.4,97,454.8,96.3z"/>
			</g>
			<g id="XMLID_120_">
				<path id="XMLID_121_" class="st0" d="M341.3,182.2c10.6,7.3,16,16.9,16,28.7v28.2c0,10.8-4.8,26.1-14.7,45.8
					c-9.6,19.3-19.2,31.8-28.6,37.3l-12.8,7.3c-9.1,5.1-18.6,4.8-28.9-1.2c-10.5-6.2-15.6-14.4-15.8-24.5l0.9-5.9
					c0.5-1.4,1.6-2.7,3-3.4l14.7,8.5c6.4,1.6,13.1,0.2,20.6-4.1c10.1-5.9,19-14.7,26.8-27c1.1-1.4,2.3-3.5,3.9-6.2
					c1.6-2.7,3.4-6,5.3-10.1c0-0.7-5.7-1.6-17.2-2.7l-18.3-1.6l-28-3.4c-9.6-1.2-14.6-3-14.6-5.5c0.2-2.3,7.1-11.9,20.9-28.6
					c13.3-16.7,21.7-26.1,25-28l9.4-5.5C319.8,174.2,330.4,174.9,341.3,182.2z M341.1,224.5V204l-8.9-13.5c-3.7-2.8-8.2-2.8-13,0
					c-3.9,2.3-7.1,6-9.8,11c-8.2,16.5-15.3,28-20.9,34.4l30.5,3.2c10.1,1.2,15.3,2,15.6,2.5c2.1-3.7,3.7-7.5,4.6-11.2
					C340.2,226.9,340.7,224.8,341.1,224.5"/>
			</g>
			<g id="XMLID_118_">
				<path id="XMLID_119_" class="st0" d="M217.9,233.3c1.8-0.4,6.6,0.9,14.6,3.5c7.6,2.8,11.5,5,11.5,6.2l-13.5,13.8
					c-4.1,5.1-6.2,10.8-6.2,17.2l0.2,77.9c0,2.7,1.4,5.7,4.4,9.1l4.4,3.5l-2.1,5.3l-2.3,1.4l-8.9,1.1c-3,0.4-6.6,1.8-11,4.3
					c-3.7,2.1-6.7,4.6-9.1,7.3l-7.1,8.2l-3.2,1.2c-1.1-0.5-1.4-1.4-1.4-2.5c0-1.4,1.4-4.8,4.1-10.1c2.7-5.5,4.1-9.2,4.1-11.2
					l-0.2-79.7c0-2.7-1.6-5-4.8-6.7c-3.2-2.3-5.9-2.8-8-1.4c-5.9,3.4-8.9,8.2-8.9,14.2v4.4l0.4,5l-0.4,5.3l-3,1.8l-25-28.7
					c1.8-3.4,5.7-7.5,11.7-12.2l12.4-9.9c6.2-3.5,12.2-3.2,17.7,1.2c5.5,4.1,8.9,6,9.8,5.9c3.4-10.5,8.5-20.8,15.6-30.7L217.9,233.3
					z"/>
			</g>
			<g id="XMLID_116_">
				<path id="XMLID_117_" class="st0" d="M94.1,304.7c5.3-3,10.3-4.8,14.9-5.3c4.6-0.5,8.7,0.2,12.1,2.1c3.4,2,6,5,7.8,9.2
					c2,4.3,2.8,9.4,2.8,15.4c1.1,0.5,1.6,1.6,1.8,3.4l-3.2,15.1c-7.6,27.5-23.1,47.9-46.5,61.6v-4.1l1.8-3l0.9-4.3
					c0-3.4-1.4-6-4.4-7.8c-3-1.8-5.9-1.8-8.9-0.2c-5.1,3-9.4,8-13.1,15.1c-3.5,7.1-5.5,13.8-5.3,20.1c0,10.8,3.5,17.9,10.5,21.5
					c6.9,3.5,15.1,2.5,24.5-3c8.3-4.8,15.1-10.6,20.4-17.6c5.3-6.9,8-13.7,8-20.2c0-6.4-1.6-9.8-4.8-10.1c-1.2-0.2-2-0.9-2.3-2
					c0-0.7,0.5-1.6,1.4-2.8c1.1-1.2,2.1-2.7,3.4-4.1c1.2-1.4,2.5-2.7,3.9-3.7c1.2-1.1,2.3-1.8,2.8-2.1c4.1-2.3,7.6-2.5,10.6-0.2
					c3,2.3,4.4,5.9,4.4,10.8c0,12.1-5.5,24.5-16.5,37.3c-9.1,10.6-19.3,19.3-30.7,25.9c-14,8-27.3,11-40.1,8.9
					c-14.2-2.1-21.3-11.2-21.3-26.8v-11.2c0-8,2.8-17.4,8.5-28.4c5.5-10.8,11.9-18.5,19.2-22.5l7.1-4.1c3.5-2.1,6.9-2.5,10.1-1.4
					c7.5,2.3,12.4,2.7,14.7,1.2c7.3-4.3,14.2-10.5,20.9-18.5c8-9.9,12.1-18.5,12.1-25.9c0-5.7-1.6-9.2-4.8-10.8
					c-1.4-0.4-2.8-0.4-4.4-0.2c-3.7,2.1-10.5,9.1-20.4,20.9c-9.6,11.7-15.4,18.1-17.7,19.3l-8.3,4.8c-6,3.5-10.8,2.8-14.2-2l-8-11.7
					v-3l4.4-2.5c2.1-1.1,3.7-0.9,4.8,0.4c1.8,1.1,3.2,1.2,4.1,0.7l18.8-19.3C81.8,313,88,308,94.1,304.7z"/>
			</g>
			<g id="XMLID_111_">
				<path id="XMLID_113_" class="st0" d="M-5,391.6c15.1,9.9,22.5,23.1,22.5,39.2c0,18.1-5.7,36.9-17,56.3c-9.6,16.1-19,27-28,32.1
					c-1.6,0.5-7.5-0.2-17.4-1.8l-16-2.7l-10.6,21.7c-3.2,6.6-6.6,11-10.3,13.1c-0.5-0.2-1.1-0.2-1.4-0.2s-0.7,0-0.9-0.2
					c-3.2-0.4-5.7-0.7-7.8-0.9c-2.1-0.2-3.5-0.4-4.6-0.7l-13-2.7c0.4-1.6,4.1-5.7,10.8-12.4c7.1-7.6,10.6-16.1,10.6-25.2l-0.2-46.5
					c0-8.9-1.8-15.1-5.3-19l-11.9-11.9v-4.1l3.5-2.1c7.1,2.7,12.8,2.8,17.2,0.4c3-2.1,8.2-8,15.6-17.6c7.6-9.9,12.6-15.4,15.1-16.9
					C-37.6,380.6-21.1,381.2-5,391.6z M-20.7,470.4c8.7-18.1,13-31.9,13-41.3l-0.9-4.3l-0.9-3.2c0-8.3-1.8-14.7-5.3-19.3
					c-3.7-5.5-9.2-6.2-16.3-2.1c-3,1.8-7.8,8-14.7,19c-7.3,11-13.1,17.7-17.7,20.4l-2.3,0.7c-1.2,0.2-2.3,0.7-3.2,1.2
					c-1.4,0.9-2.5,1.6-3.4,2.5l8.7,13.5l3.9,4.3l0.2,41.3l5.9-0.7c3-0.2,6.4-1.2,10.3-3.5C-35.3,493.7-27.5,484.3-20.7,470.4"/>
			</g>
		</g>
	</g>
</g>
</svg>
