<?xml version="1.0" encoding="utf-8"?>
<!-- Generator: Adobe Illustrator 19.0.0, SVG Export Plug-In . SVG Version: 6.00 Build 0)  -->
<svg version="1.1" id="Layer_1" xmlns="http://www.w3.org/2000/svg" xmlns:xlink="http://www.w3.org/1999/xlink" x="0px" y="0px"
	 viewBox="-114 -8.7 612 560.3" style="enable-background:new -114 -8.7 612 560.3;" xml:space="preserve">
<style type="text/css">
	.st0{fill:#F6F3EA;}
</style>
<g id="XMLID_417_">
	<g id="XMLID_392_">
		<g id="XMLID_82_">
			<g id="XMLID_122_">
				<path id="XMLID_123_" class="st0" d="M29.7,169.4c2-1.1,6-0.4,12.6,2.1c7.6,3.2,11.7,9.6,12.2,19.2l0.4,7.6
					c0.2,5.3-0.7,12.2-2.8,20.9c-3.5,14-8.5,28-14.9,41.9l-4.4,9.2c-0.4,0.9-1.1,2.5-2.1,4.6c-1.1,2.1-2.3,4.8-3.7,8l-5.5,12.4
					C16,307.5,11.6,316.4,8,322.2l-3.9,6.6c-1.8,0.7-5.5,1.1-11.2,1.1c-21.7-0.2-32.8-6.2-33.4-18.1l-2.7-54.3
					c-0.5-10.8-3.9-14.4-10.1-10.8c-0.2,0.2-0.4,0.2-0.7,0.4l-3,2c-0.2,0.2-0.4,0.2-0.5,0.4c-2.5,1.4-3.7,1.1-3.9-1.2
					c0-1.2,4.6-8.3,14.2-21.3l14-18.8c1.4-0.9,3.9-0.2,7.5,2.1c4.3,3.2,6.6,8.2,6.7,14.7l2.7,53.8c0.5,10.5,5.5,16,14.7,16.3
					c2.5,0,7.1-0.5,13.8-1.8l10.6-22.5c6.7-17.7,9.9-31.8,9.4-42.1c-0.4-5.5-2.3-10.6-6-15.6c-4.1-5-8.3-6.2-12.8-3.7
					c-0.2,0.2-0.4,0.2-0.5,0.4l-9.8,6.2c-0.4-0.4-0.7-0.7-0.9-0.9s-0.4-0.4-0.7-0.5l-1.2-2.1c0-1.2,5.5-10.3,16.9-27.2
					C23.3,176.5,27.2,171.6,29.7,169.4z"/>
			</g>
			<g id="XMLID_94_">
				<path id="XMLID_112_" class="st0" d="M128.3,245.9l0.2,3.4l-46,29.3l-0.2-4.3l4.3-13.5c1.6-5.1,2.3-9.8,2-14.2l-3.7-75.1
					c-0.4-6.7-4.1-8.2-11.2-4.1c-0.5,0.4-0.9,0.5-1.4,0.9c-2,1.1-4.1,0.7-6.7-1.1c2.8-5.1,8.3-13,16.5-23.4l15.1-19.2
					c0.2,0,0.2-0.2,0.4-0.2c4.1-2.3,7.8-0.2,11.2,6.4l5.7,9.6l4.6,91.2c0.2,4.4,1.4,7.8,3.5,9.9L128.3,245.9z"/>
			</g>
			<g id="XMLID_92_">
				<path id="XMLID_93_" class="st0" d="M90,103.2C88,96,87,90.8,86.8,88c-0.2-5.3,0.9-10.5,3.4-15.6c2.5-5.1,5.9-8.9,9.9-11.5
					c0.4-0.2,0.7-0.4,0.9-0.5c3.7-2.1,7.1-2.8,10.1-1.8c3.4,1.1,5,3.9,5.3,8.5c0.2,3.9-2.3,12.1-7.3,24.3
					c-4.8,11.9-9.1,19-12.6,21.3C94.2,113.9,92.1,110.7,90,103.2z"/>
			</g>
			<g id="XMLID_90_">
				<path id="XMLID_91_" class="st0" d="M181.4,70.8c3.9-2.3,9.1-4.1,15.8-5.3l10.3-1.8l7.3-4.6c1.4-1.1,2.3-2.1,2.8-3.2
					c2-2.8,3.7-5,5.5-6.6c0.2-0.2,0.4-0.2,0.5-0.4c2.8-1.6,4.3-1.1,4.4,1.6c0.2,2.7-2.5,9.4-8.2,20.4c-5.5,11-11.4,18.5-17.4,22.4
					c-0.4,0.2-0.9,0.5-1.2,0.7c-5.9,3.4-13.8,5.9-24.1,7.3c-5.5,0.7-9.8,2-12.8,3.7c-0.2,0.2-0.5,0.4-0.7,0.4
					c-5.7,3.5-10.6,10.1-14.9,19.3c-2.8,6.4-4.4,11.4-4.4,14.7l0.5,10.8c0.5,9.4,6.2,16.9,17.2,22.4c10.8,4.6,20.4,4.4,28.6-0.4
					c0.4-0.2,0.7-0.5,1.1-0.7l11.5-7.3c4.4-2.8,8.5-7.1,11.9-12.6l11.2-18.5l5.7-3.5l0.7,12.8c0.5,9.4-4.8,22.2-15.8,38
					c-10.3,14.7-19.7,24.8-28.6,30.5c-1.1,0.7-2,1.2-3,1.8c-15.3,8.7-28.2,9.1-38.9,1.1c-9.4-6.4-14.4-15.1-14.9-25.9l-1.2-23.4
					c-0.7-13,4.6-30,16-51.1c10.6-20.6,22-34.8,34.1-42.4C180.8,71.1,181,71,181.4,70.8z"/>
			</g>
			<g id="XMLID_85_">
				<path id="XMLID_87_" class="st0" d="M342,61.4c0.5,9.9-4.1,24.1-14,42.6c-9.6,18.1-19,30.2-28,35.8l-12.6,8.2
					c-0.4,0.2-0.7,0.5-1.2,0.7c-9.1,5.3-18.6,4.4-28.4-2.7c-10.5-7.3-16-16.3-16.5-26.8l-1.4-27.3c-0.5-11.7,4.1-27.3,14-47
					c10.1-20.1,20.4-33.4,30.9-40.1l9.4-6c3.7-2.1,12.2-3,25.7-2.8c14.2-0.2,21.5,0.7,21.7,2.7c0.2,2.5-4.4,9.9-13.8,22.7l-27,36.9
					l-17.7,23.4c-11,14.7-16.5,22.4-16.5,23.1c2.1,1.6,3.9,2.7,5.7,3.5c1.6,0.7,3,1.2,4.1,1.4c7.6,2.3,16,0.7,25-4.6
					c0.7-0.5,1.6-0.9,2.3-1.4c7.5-4.8,14.2-11.7,20.2-20.8l13.8-25.9c1.4-0.9,2.5-0.9,3-0.2L342,61.4z M263.4,94.6
					c0.4-0.9,5.3-8,15.1-21.1L307.7,34c-5.9,0.5-13.1-2.3-22-8.3c-2.5-1.8-5.7-1.6-9.2,0.5c-0.2,0.2-0.5,0.4-0.7,0.5
					c-5,3.2-9.1,8.3-12.6,15.6l-8,23.8l1.1,19.7c0.4,0,1.1,1.2,2.1,3.7C259.5,91.7,261.1,93.5,263.4,94.6"/>
			</g>
		</g>
	</g>
</g>
</svg>
